<?xml version="1.0" encoding="UTF-8" standalone="no"?>
<!DOCTYPE svg PUBLIC "-//W3C//DTD SVG 1.1//EN" "http://www.w3.org/Graphics/SVG/1.1/DTD/svg11.dtd"[]>
<!-- Generated by graphviz version 9.0.0 (20230911.1827)
 -->
<!-- Title: oooo Pages: 1 -->
<svg width="448pt" height="780pt" viewBox="0.00 0.00 448.00 780.00" xmlns="http://www.w3.org/2000/svg" xmlns:xlink="http://www.w3.org/1999/xlink">
  <g id="graph0" class="graph" transform="scale(1 1) rotate(0) translate(4 776)">
    <title>oooo</title>
    <polygon fill="white" stroke="none" points="-4,4 -4,-776 444,-776 444,4 -4,4" />
    <g id="clust2" class="cluster">
      <title>cluster_For_each</title>
      <polygon fill="#ffffff" stroke="#000090" points="133,-80 133,-132 227,-132 227,-80 133,-80" />
    </g>
    <g id="clust3" class="cluster">
      <title>cluster_Appliquer_a_chacun</title>
      <polygon fill="#ffffff" stroke="#000090" points="181,-296 181,-348 345,-348 345,-296 181,-296" />
    </g>
    <g id="clust1" class="cluster">
      <title>cluster_Condition_(Enable_Automatic_Replies)</title>
      <polygon fill="#ffffff" stroke="#000090" points="8,-8 8,-60 274,-60 274,-8 8,-8" />
    </g>
    <!-- Condition_(Enable_Automatic_Replies) -->
    <g id="node1" class="node">
      <title>Condition_(Enable_Automatic_Replies)</title>
      <polygon fill="#dedfe0" stroke="#484f58" points="265.88,-52 16.12,-52 16.12,-16 265.88,-16 265.88,-52" />
      <text text-anchor="middle" x="141" y="-28.95" font-family="Helvetica,sans-Serif" font-size="14.00">Condition_(Enable_Automatic_Replies)</text>
    </g>
    <!-- For_each -->
    <g id="node2" class="node">
      <title>For_each</title>
      <polygon fill="#dedfe0" stroke="#484f58" points="219.38,-124 158.62,-124 158.62,-88 219.38,-88 219.38,-124" />
      <text text-anchor="middle" x="189" y="-100.95" font-family="Helvetica,sans-Serif" font-size="14.00">For_each</text>
    </g>
    <!-- invisnodeGraph cluster_For_each with 1 nodes.Graph cluster_Condition_(Enable_Automatic_Replies) with 1 nodes. -->
    <!-- invisnodeGraph cluster_For_each with 1 nodes.Graph cluster_Condition_(Enable_Automatic_Replies) with 1 nodes.&#45;&gt;Condition_(Enable_Automatic_Replies) -->
    <g id="edge10" class="edge">
      <title>invisnodeGraph cluster_For_each with 1 nodes.Graph cluster_Condition_(Enable_Automatic_Replies) with 1 nodes.-&gt;Condition_(Enable_Automatic_Replies)</title>
      <path fill="none" stroke="black" d="M141,-80C141,-74.71 141,-69.07 141,-63.65" />
      <polygon fill="black" stroke="black" points="144.5,-71.51 141,-61.51 137.5,-71.51 144.5,-71.51" />
    </g>
    <!-- Appliquer_a_chacun -->
    <g id="node4" class="node">
      <title>Appliquer_a_chacun</title>
      <polygon fill="#dedfe0" stroke="#484f58" points="336.88,-340 207.12,-340 207.12,-304 336.88,-304 336.88,-340" />
      <text text-anchor="middle" x="272" y="-316.95" font-family="Helvetica,sans-Serif" font-size="14.00">Appliquer_a_chacun</text>
    </g>
    <!-- invisnodeGraph cluster_Appliquer_a_chacun with 1 nodes.Name: Initialiser_la_variable_(NewStartTime), root name: oooo -->
    <!-- Initialiser_la_variable_(NewStartTime) -->
    <g id="node12" class="node">
      <title>Initialiser_la_variable_(NewStartTime)</title>
      <polygon fill="#ebdbf9" stroke="#770bd6" points="307.88,-268 70.12,-268 70.12,-232 307.88,-232 307.88,-268" />
      <text text-anchor="middle" x="189" y="-244.95" font-family="Helvetica,sans-Serif" font-size="14.00">Initialiser_la_variable_(NewStartTime)</text>
    </g>
    <!-- invisnodeGraph cluster_Appliquer_a_chacun with 1 nodes.Name: Initialiser_la_variable_(NewStartTime), root name: oooo&#45;&gt;Initialiser_la_variable_(NewStartTime) -->
    <g id="edge9" class="edge">
      <title>invisnodeGraph cluster_Appliquer_a_chacun with 1 nodes.Name: Initialiser_la_variable_(NewStartTime), root name: oooo-&gt;Initialiser_la_variable_(NewStartTime)</title>
      <path fill="none" stroke="black" d="M189,-296C189,-290.71 189,-285.07 189,-279.65" />
      <polygon fill="black" stroke="black" points="192.5,-279.7 189,-269.7 185.5,-279.7 192.5,-279.7" />
    </g>
    <!-- Recurrence -->
    <g id="node6" class="node">
      <title>Recurrence</title>
      <ellipse fill="#d9ebff" stroke="#0077ff" cx="272" cy="-754" rx="61.59" ry="18" />
      <text text-anchor="middle" x="272" y="-748.95" font-family="Helvetica,sans-Serif" font-size="14.00">Recurrence</text>
    </g>
    <!-- Heure_actuelle -->
    <g id="node7" class="node">
      <title>Heure_actuelle</title>
      <polygon fill="#d9ebff" stroke="#0077ff" points="319.62,-700 224.38,-700 224.38,-664 319.62,-664 319.62,-700" />
      <text text-anchor="middle" x="272" y="-676.95" font-family="Helvetica,sans-Serif" font-size="14.00">Heure_actuelle</text>
    </g>
    <!-- Recurrence&#45;&gt;Heure_actuelle -->
    <g id="edge1" class="edge">
      <title>Recurrence-&gt;Heure_actuelle</title>
      <path fill="none" stroke="black" d="M272,-735.7C272,-728.41 272,-719.73 272,-711.54" />
      <polygon fill="black" stroke="black" points="275.5,-711.62 272,-701.62 268.5,-711.62 275.5,-711.62" />
    </g>
    <!-- Obtenir_l&#39;heure_future -->
    <g id="node8" class="node">
      <title>Obtenir_l'heure_future</title>
      <polygon fill="#d9ebff" stroke="#0077ff" points="342.5,-628 201.5,-628 201.5,-592 342.5,-592 342.5,-628" />
      <text text-anchor="middle" x="272" y="-604.95" font-family="Helvetica,sans-Serif" font-size="14.00">Obtenir_l'heure_future</text>
    </g>
    <!-- Heure_actuelle&#45;&gt;Obtenir_l&#39;heure_future -->
    <g id="edge2" class="edge">
      <title>Heure_actuelle-&gt;Obtenir_l'heure_future</title>
      <path fill="none" stroke="black" d="M272,-663.7C272,-656.41 272,-647.73 272,-639.54" />
      <polygon fill="black" stroke="black" points="275.5,-639.62 272,-629.62 268.5,-639.62 275.5,-639.62" />
    </g>
    <!-- Initialiser_la_variable_StartTime -->
    <g id="node9" class="node">
      <title>Initialiser_la_variable_StartTime</title>
      <polygon fill="#ebdbf9" stroke="#770bd6" points="372.5,-556 171.5,-556 171.5,-520 372.5,-520 372.5,-556" />
      <text text-anchor="middle" x="272" y="-532.95" font-family="Helvetica,sans-Serif" font-size="14.00">Initialiser_la_variable_StartTime</text>
    </g>
    <!-- Obtenir_l&#39;heure_future&#45;&gt;Initialiser_la_variable_StartTime -->
    <g id="edge3" class="edge">
      <title>Obtenir_l'heure_future-&gt;Initialiser_la_variable_StartTime</title>
      <path fill="none" stroke="black" d="M272,-591.7C272,-584.41 272,-575.73 272,-567.54" />
      <polygon fill="black" stroke="black" points="275.5,-567.62 272,-557.62 268.5,-567.62 275.5,-567.62" />
    </g>
    <!-- Initialiser_la_variable_EndTime -->
    <g id="node10" class="node">
      <title>Initialiser_la_variable_EndTime</title>
      <polygon fill="#ebdbf9" stroke="#770bd6" points="370.62,-484 173.38,-484 173.38,-448 370.62,-448 370.62,-484" />
      <text text-anchor="middle" x="272" y="-460.95" font-family="Helvetica,sans-Serif" font-size="14.00">Initialiser_la_variable_EndTime</text>
    </g>
    <!-- Initialiser_la_variable_StartTime&#45;&gt;Initialiser_la_variable_EndTime -->
    <g id="edge4" class="edge">
      <title>Initialiser_la_variable_StartTime-&gt;Initialiser_la_variable_EndTime</title>
      <path fill="none" stroke="black" d="M272,-519.7C272,-512.41 272,-503.73 272,-495.54" />
      <polygon fill="black" stroke="black" points="275.5,-495.62 272,-485.62 268.5,-495.62 275.5,-495.62" />
    </g>
    <!-- Obtenir_une_vue_Calendrier_des_evenements_(V3) -->
    <g id="node11" class="node">
      <title>Obtenir_une_vue_Calendrier_des_evenements_(V3)</title>
      <polygon fill="#daece3" stroke="#088142" points="440,-412 104,-412 104,-376 440,-376 440,-412" />
      <text text-anchor="middle" x="272" y="-388.95" font-family="Helvetica,sans-Serif" font-size="14.00">Obtenir_une_vue_Calendrier_des_evenements_(V3)</text>
    </g>
    <!-- Initialiser_la_variable_EndTime&#45;&gt;Obtenir_une_vue_Calendrier_des_evenements_(V3) -->
    <g id="edge5" class="edge">
      <title>Initialiser_la_variable_EndTime-&gt;Obtenir_une_vue_Calendrier_des_evenements_(V3)</title>
      <path fill="none" stroke="black" d="M272,-447.7C272,-440.41 272,-431.73 272,-423.54" />
      <polygon fill="black" stroke="black" points="275.5,-423.62 272,-413.62 268.5,-423.62 275.5,-423.62" />
    </g>
    <!-- Obtenir_une_vue_Calendrier_des_evenements_(V3)&#45;&gt;Appliquer_a_chacun -->
    <g id="edge6" class="edge">
      <title>Obtenir_une_vue_Calendrier_des_evenements_(V3)-&gt;Appliquer_a_chacun</title>
      <path fill="none" stroke="black" d="M272,-375.7C272,-368.41 272,-359.73 272,-351.54" />
      <polygon fill="black" stroke="black" points="275.5,-359.51 272,-349.51 268.5,-359.51 275.5,-359.51" />
    </g>
    <!-- Initialiser_la_variable_(NewEndTime) -->
    <g id="node13" class="node">
      <title>Initialiser_la_variable_(NewEndTime)</title>
      <polygon fill="#ebdbf9" stroke="#770bd6" points="306,-196 72,-196 72,-160 306,-160 306,-196" />
      <text text-anchor="middle" x="189" y="-172.95" font-family="Helvetica,sans-Serif" font-size="14.00">Initialiser_la_variable_(NewEndTime)</text>
    </g>
    <!-- Initialiser_la_variable_(NewStartTime)&#45;&gt;Initialiser_la_variable_(NewEndTime) -->
    <g id="edge7" class="edge">
      <title>Initialiser_la_variable_(NewStartTime)-&gt;Initialiser_la_variable_(NewEndTime)</title>
      <path fill="none" stroke="black" d="M189,-231.7C189,-224.41 189,-215.73 189,-207.54" />
      <polygon fill="black" stroke="black" points="192.5,-207.62 189,-197.62 185.5,-207.62 192.5,-207.62" />
    </g>
    <!-- Initialiser_la_variable_(NewEndTime)&#45;&gt;For_each -->
    <g id="edge8" class="edge">
      <title>Initialiser_la_variable_(NewEndTime)-&gt;For_each</title>
      <path fill="none" stroke="black" d="M189,-159.7C189,-152.41 189,-143.73 189,-135.54" />
      <polygon fill="black" stroke="black" points="192.5,-143.51 189,-133.51 185.5,-143.51 192.5,-143.51" />
    </g>
  </g>
</svg>