<?xml version="1.0" encoding="UTF-8" standalone="no"?>
<!DOCTYPE svg PUBLIC "-//W3C//DTD SVG 1.1//EN" "http://www.w3.org/Graphics/SVG/1.1/DTD/svg11.dtd"[]>
<!-- Generated by graphviz version 9.0.0 (20230911.1827)
 -->
<!-- Title: oooo Pages: 1 -->
<svg width="2279pt" height="872pt" viewBox="0.00 0.00 2279.00 872.00" xmlns="http://www.w3.org/2000/svg" xmlns:xlink="http://www.w3.org/1999/xlink">
  <g id="graph0" class="graph" transform="scale(1 1) rotate(0) translate(4 868)">
    <title>oooo</title>
    <polygon fill="white" stroke="none" points="-4,4 -4,-868 2275,-868 2275,4 -4,4" />
    <g id="clust4" class="cluster">
      <title>cluster_For_each</title>
      <polygon fill="#ffffff" stroke="#000090" points="773,-8 773,-224 1207,-224 1207,-8 773,-8" />
    </g>
    <g id="clust5" class="cluster">
      <title>cluster_Condition_(End_on_friday)</title>
      <polygon fill="#ffffff" stroke="#000090" points="781,-16 781,-152 1199,-152 1199,-16 781,-16" />
    </g>
    <g id="clust6" class="cluster">
      <title>cluster_yesCondition_(End_on_friday)</title>
      <polygon fill="#88da8d" stroke="#88da8d" points="789,-24 789,-76 935,-76 935,-24 789,-24" />
    </g>
    <g id="clust7" class="cluster">
      <title>cluster_noCondition_(End_on_friday)</title>
      <polygon fill="#fb8981" stroke="#fb8981" points="943,-24 943,-76 1191,-76 1191,-24 943,-24" />
    </g>
    <g id="clust1" class="cluster">
      <title>cluster_Condition_(Enable_Automatic_Replies)</title>
      <polygon fill="#ffffff" stroke="#000090" points="1215,-16 1215,-152 2263,-152 2263,-16 1215,-16" />
    </g>
    <g id="clust2" class="cluster">
      <title>cluster_yesCondition_(Enable_Automatic_Replies)</title>
      <polygon fill="#88da8d" stroke="#88da8d" points="1223,-24 1223,-76 1741,-76 1741,-24 1223,-24" />
    </g>
    <g id="clust3" class="cluster">
      <title>cluster_noCondition_(Enable_Automatic_Replies)</title>
      <polygon fill="#fb8981" stroke="#fb8981" points="1749,-24 1749,-76 2255,-76 2255,-24 1749,-24" />
    </g>
    <g id="clust8" class="cluster">
      <title>cluster_Appliquer_a_chacun</title>
      <polygon fill="#ffffff" stroke="#000090" points="8,-84 8,-440 756,-440 756,-84 8,-84" />
    </g>
    <g id="clust9" class="cluster">
      <title>cluster_Condition__(Show_as_Out_of_Office)</title>
      <polygon fill="#ffffff" stroke="#000090" points="16,-92 16,-368 748,-368 748,-92 16,-92" />
    </g>
    <g id="clust10" class="cluster">
      <title>cluster_Condition_(Maximize_endTime)</title>
      <polygon fill="#ffffff" stroke="#000090" points="390,-100 390,-224 740,-224 740,-100 390,-100" />
    </g>
    <g id="clust11" class="cluster">
      <title>cluster_Condition_(Minimize_startTime)</title>
      <polygon fill="#ffffff" stroke="#000090" points="24,-172 24,-296 382,-296 382,-172 24,-172" />
    </g>
    <!-- Configurer_des_reponses_automatiques_(V2)_(Schedule_Automatic_Replies) -->
    <g id="node1" class="node">
      <title>Configurer_des_reponses_automatiques_(V2)_(Schedule_Automatic_Replies)</title>
      <polygon fill="#daece3" stroke="#088142" points="1732.5,-68 1231.5,-68 1231.5,-32 1732.5,-32 1732.5,-68" />
      <text text-anchor="middle" x="1482" y="-44.95" font-family="Helvetica,sans-Serif" font-size="14.00">Configurer_des_reponses_automatiques_(V2)_(Schedule_Automatic_Replies)</text>
    </g>
    <!-- Configurer_des_reponses_automatiques_(V2)_(Disable_Automatic_Replies) -->
    <g id="node2" class="node">
      <title>Configurer_des_reponses_automatiques_(V2)_(Disable_Automatic_Replies)</title>
      <polygon fill="#daece3" stroke="#088142" points="2246.5,-68 1757.5,-68 1757.5,-32 2246.5,-32 2246.5,-68" />
      <text text-anchor="middle" x="2002" y="-44.95" font-family="Helvetica,sans-Serif" font-size="14.00">Configurer_des_reponses_automatiques_(V2)_(Disable_Automatic_Replies)</text>
    </g>
    <!-- Condition_(Enable_Automatic_Replies) -->
    <g id="node3" class="node">
      <title>Condition_(Enable_Automatic_Replies)</title>
      <polygon fill="#dedfe0" stroke="#484f58" points="1606.88,-144 1357.12,-144 1357.12,-108 1606.88,-108 1606.88,-144" />
      <text text-anchor="middle" x="1482" y="-120.95" font-family="Helvetica,sans-Serif" font-size="14.00">Condition_(Enable_Automatic_Replies)</text>
    </g>
    <!-- Condition_(Enable_Automatic_Replies)&#45;&gt;Configurer_des_reponses_automatiques_(V2)_(Schedule_Automatic_Replies) -->
    <g id="edge16" class="edge">
      <title>Condition_(Enable_Automatic_Replies)-&gt;Configurer_des_reponses_automatiques_(V2)_(Schedule_Automatic_Replies)</title>
      <path fill="none" stroke="black" d="M1482,-107.84C1482,-99.49 1482,-89.23 1482,-79.74" />
      <polygon fill="black" stroke="black" points="1485.5,-87.51 1482,-77.51 1478.5,-87.51 1485.5,-87.51" />
    </g>
    <!-- Condition_(Enable_Automatic_Replies)&#45;&gt;Configurer_des_reponses_automatiques_(V2)_(Disable_Automatic_Replies) -->
    <g id="edge17" class="edge">
      <title>Condition_(Enable_Automatic_Replies)-&gt;Configurer_des_reponses_automatiques_(V2)_(Disable_Automatic_Replies)</title>
      <path fill="none" stroke="black" d="M1604.9,-107.51C1667.62,-98.58 1745.24,-87.54 1815.18,-77.59" />
      <polygon fill="black" stroke="black" points="1815.43,-81.09 1824.83,-76.21 1814.44,-74.16 1815.43,-81.09" />
    </g>
    <!-- Definir_une_variable -->
    <g id="node4" class="node">
      <title>Definir_une_variable</title>
      <polygon fill="#ebdbf9" stroke="#770bd6" points="926.88,-68 797.12,-68 797.12,-32 926.88,-32 926.88,-68" />
      <text text-anchor="middle" x="862" y="-44.95" font-family="Helvetica,sans-Serif" font-size="14.00">Definir_une_variable</text>
    </g>
    <!-- Definir_une_variable_(NewEndTime) -->
    <g id="node5" class="node">
      <title>Definir_une_variable_(NewEndTime)</title>
      <polygon fill="#ebdbf9" stroke="#770bd6" points="1183.25,-68 950.75,-68 950.75,-32 1183.25,-32 1183.25,-68" />
      <text text-anchor="middle" x="1067" y="-44.95" font-family="Helvetica,sans-Serif" font-size="14.00">Definir_une_variable_(NewEndTime)</text>
    </g>
    <!-- Condition_(End_on_friday) -->
    <g id="node6" class="node">
      <title>Condition_(End_on_friday)</title>
      <polygon fill="#dedfe0" stroke="#484f58" points="967.75,-144 798.25,-144 798.25,-108 967.75,-108 967.75,-144" />
      <text text-anchor="middle" x="883" y="-120.95" font-family="Helvetica,sans-Serif" font-size="14.00">Condition_(End_on_friday)</text>
    </g>
    <!-- Condition_(End_on_friday)&#45;&gt;Definir_une_variable -->
    <g id="edge14" class="edge">
      <title>Condition_(End_on_friday)-&gt;Definir_une_variable</title>
      <path fill="none" stroke="black" d="M878.13,-107.84C875.71,-99.31 872.72,-88.78 869.98,-79.11" />
      <polygon fill="black" stroke="black" points="875.95,-85.77 869.41,-77.43 869.32,-88.03 875.95,-85.77" />
    </g>
    <!-- Condition_(End_on_friday)&#45;&gt;Definir_une_variable_(NewEndTime) -->
    <g id="edge15" class="edge">
      <title>Condition_(End_on_friday)-&gt;Definir_une_variable_(NewEndTime)</title>
      <path fill="none" stroke="black" d="M926.14,-107.65C946.47,-99.48 971.27,-89.5 994.37,-80.21" />
      <polygon fill="black" stroke="black" points="995.47,-83.54 1003.44,-76.56 992.86,-77.05 995.47,-83.54" />
    </g>
    <!-- For_each -->
    <g id="node7" class="node">
      <title>For_each</title>
      <polygon fill="#dedfe0" stroke="#484f58" points="913.38,-216 852.62,-216 852.62,-180 913.38,-180 913.38,-216" />
      <text text-anchor="middle" x="883" y="-192.95" font-family="Helvetica,sans-Serif" font-size="14.00">For_each</text>
    </g>
    <!-- For_each&#45;&gt;Condition_(End_on_friday) -->
    <g id="edge13" class="edge">
      <title>For_each-&gt;Condition_(End_on_friday)</title>
      <path fill="none" stroke="black" d="M883,-179.7C883,-172.41 883,-163.73 883,-155.54" />
      <polygon fill="black" stroke="black" points="886.5,-163.51 883,-153.51 879.5,-163.51 886.5,-163.51" />
    </g>
    <!-- invisnodeGraph cluster_For_each with 4 nodes.Graph cluster_Condition_(Enable_Automatic_Replies) with 3 nodes. -->
    <!-- invisnodeGraph cluster_For_each with 4 nodes.Graph cluster_Condition_(Enable_Automatic_Replies) with 3 nodes.&#45;&gt;Condition_(Enable_Automatic_Replies) -->
    <g id="edge20" class="edge">
      <title>invisnodeGraph cluster_For_each with 4 nodes.Graph cluster_Condition_(Enable_Automatic_Replies) with 3 nodes.-&gt;Condition_(Enable_Automatic_Replies)</title>
      <path fill="none" stroke="black" d="M1207,-195.02C1231.02,-189.08 1304.89,-170.81 1370.02,-154.7" />
      <polygon fill="black" stroke="black" points="1370.6,-158.16 1379.46,-152.36 1368.91,-151.37 1370.6,-158.16" />
    </g>
    <!-- Condition_(Maximize_endTime) -->
    <g id="node9" class="node">
      <title>Condition_(Maximize_endTime)</title>
      <polygon fill="#dedfe0" stroke="#484f58" points="631.12,-216 430.88,-216 430.88,-180 631.12,-180 631.12,-216" />
      <text text-anchor="middle" x="531" y="-192.95" font-family="Helvetica,sans-Serif" font-size="14.00">Condition_(Maximize_endTime)</text>
    </g>
    <!-- Definir_une_variable_(Set_endTime_with_End_time) -->
    <g id="node10" class="node">
      <title>Definir_une_variable_(Set_endTime_with_End_time)</title>
      <polygon fill="#ebdbf9" stroke="#770bd6" points="732.25,-144 397.75,-144 397.75,-108 732.25,-108 732.25,-144" />
      <text text-anchor="middle" x="565" y="-120.95" font-family="Helvetica,sans-Serif" font-size="14.00">Definir_une_variable_(Set_endTime_with_End_time)</text>
    </g>
    <!-- Condition_(Maximize_endTime)&#45;&gt;Definir_une_variable_(Set_endTime_with_End_time) -->
    <g id="edge9" class="edge">
      <title>Condition_(Maximize_endTime)-&gt;Definir_une_variable_(Set_endTime_with_End_time)</title>
      <path fill="none" stroke="black" d="M539.4,-179.7C543.11,-172.07 547.56,-162.92 551.69,-154.4" />
      <polygon fill="black" stroke="black" points="554.81,-155.99 556.03,-145.47 548.51,-152.93 554.81,-155.99" />
    </g>
    <!-- Condition_(Minimize_startTime) -->
    <g id="node11" class="node">
      <title>Condition_(Minimize_startTime)</title>
      <polygon fill="#dedfe0" stroke="#484f58" points="302.75,-288 103.25,-288 103.25,-252 302.75,-252 302.75,-288" />
      <text text-anchor="middle" x="203" y="-264.95" font-family="Helvetica,sans-Serif" font-size="14.00">Condition_(Minimize_startTime)</text>
    </g>
    <!-- Definir_une_variable_(Set_startTime_with_Start_time) -->
    <g id="node12" class="node">
      <title>Definir_une_variable_(Set_startTime_with_Start_time)</title>
      <polygon fill="#ebdbf9" stroke="#770bd6" points="373.62,-216 32.38,-216 32.38,-180 373.62,-180 373.62,-216" />
      <text text-anchor="middle" x="203" y="-192.95" font-family="Helvetica,sans-Serif" font-size="14.00">Definir_une_variable_(Set_startTime_with_Start_time)</text>
    </g>
    <!-- Condition_(Minimize_startTime)&#45;&gt;Definir_une_variable_(Set_startTime_with_Start_time) -->
    <g id="edge10" class="edge">
      <title>Condition_(Minimize_startTime)-&gt;Definir_une_variable_(Set_startTime_with_Start_time)</title>
      <path fill="none" stroke="black" d="M203,-251.7C203,-244.41 203,-235.73 203,-227.54" />
      <polygon fill="black" stroke="black" points="206.5,-227.62 203,-217.62 199.5,-227.62 206.5,-227.62" />
    </g>
    <!-- invisnodeGraph cluster_Condition_(Minimize_startTime) with 2 nodes.Graph cluster_Condition_(Maximize_endTime) with 2 nodes. -->
    <!-- invisnodeGraph cluster_Condition_(Minimize_startTime) with 2 nodes.Graph cluster_Condition_(Maximize_endTime) with 2 nodes.&#45;&gt;Condition_(Maximize_endTime) -->
    <g id="edge18" class="edge">
      <title>invisnodeGraph cluster_Condition_(Minimize_startTime) with 2 nodes.Graph cluster_Condition_(Maximize_endTime) with 2 nodes.-&gt;Condition_(Maximize_endTime)</title>
      <path fill="none" stroke="black" d="M382,-265.43C397.35,-258.59 432.3,-243.01 464.49,-228.65" />
      <polygon fill="black" stroke="black" points="465.85,-231.88 473.56,-224.61 463,-225.49 465.85,-231.88" />
    </g>
    <!-- Condition__(Show_as_Out_of_Office) -->
    <g id="node14" class="node">
      <title>Condition__(Show_as_Out_of_Office)</title>
      <polygon fill="#dedfe0" stroke="#484f58" points="324.5,-360 81.5,-360 81.5,-324 324.5,-324 324.5,-360" />
      <text text-anchor="middle" x="203" y="-336.95" font-family="Helvetica,sans-Serif" font-size="14.00">Condition__(Show_as_Out_of_Office)</text>
    </g>
    <!-- Condition__(Show_as_Out_of_Office)&#45;&gt;Condition_(Minimize_startTime) -->
    <g id="edge8" class="edge">
      <title>Condition__(Show_as_Out_of_Office)-&gt;Condition_(Minimize_startTime)</title>
      <path fill="none" stroke="black" d="M203,-323.7C203,-316.41 203,-307.73 203,-299.54" />
      <polygon fill="black" stroke="black" points="206.5,-307.51 203,-297.51 199.5,-307.51 206.5,-307.51" />
    </g>
    <!-- Appliquer_a_chacun -->
    <g id="node15" class="node">
      <title>Appliquer_a_chacun</title>
      <polygon fill="#dedfe0" stroke="#484f58" points="267.88,-432 138.12,-432 138.12,-396 267.88,-396 267.88,-432" />
      <text text-anchor="middle" x="203" y="-408.95" font-family="Helvetica,sans-Serif" font-size="14.00">Appliquer_a_chacun</text>
    </g>
    <!-- Appliquer_a_chacun&#45;&gt;Condition__(Show_as_Out_of_Office) -->
    <g id="edge7" class="edge">
      <title>Appliquer_a_chacun-&gt;Condition__(Show_as_Out_of_Office)</title>
      <path fill="none" stroke="black" d="M203,-395.7C203,-388.41 203,-379.73 203,-371.54" />
      <polygon fill="black" stroke="black" points="206.5,-379.51 203,-369.51 199.5,-379.51 206.5,-379.51" />
    </g>
    <!-- invisnodeGraph cluster_Appliquer_a_chacun with 7 nodes.Name: Initialiser_la_variable_(NewStartTime), root name: oooo -->
    <!-- Initialiser_la_variable_(NewStartTime) -->
    <g id="node23" class="node">
      <title>Initialiser_la_variable_(NewStartTime)</title>
      <polygon fill="#ebdbf9" stroke="#770bd6" points="1001.88,-360 764.12,-360 764.12,-324 1001.88,-324 1001.88,-360" />
      <text text-anchor="middle" x="883" y="-336.95" font-family="Helvetica,sans-Serif" font-size="14.00">Initialiser_la_variable_(NewStartTime)</text>
    </g>
    <!-- invisnodeGraph cluster_Appliquer_a_chacun with 7 nodes.Name: Initialiser_la_variable_(NewStartTime), root name: oooo&#45;&gt;Initialiser_la_variable_(NewStartTime) -->
    <g id="edge19" class="edge">
      <title>invisnodeGraph cluster_Appliquer_a_chacun with 7 nodes.Name: Initialiser_la_variable_(NewStartTime), root name: oooo-&gt;Initialiser_la_variable_(NewStartTime)</title>
      <path fill="none" stroke="black" d="M756,-408.85C772.1,-400.5 809.46,-381.13 839.52,-365.54" />
      <polygon fill="black" stroke="black" points="840.89,-368.78 848.16,-361.06 837.67,-362.56 840.89,-368.78" />
    </g>
    <!-- Recurrence -->
    <g id="node17" class="node">
      <title>Recurrence</title>
      <ellipse fill="#d9ebff" stroke="#0077ff" cx="203" cy="-846" rx="61.59" ry="18" />
      <text text-anchor="middle" x="203" y="-840.95" font-family="Helvetica,sans-Serif" font-size="14.00">Recurrence</text>
    </g>
    <!-- Heure_actuelle -->
    <g id="node18" class="node">
      <title>Heure_actuelle</title>
      <polygon fill="#d9ebff" stroke="#0077ff" points="250.62,-792 155.38,-792 155.38,-756 250.62,-756 250.62,-792" />
      <text text-anchor="middle" x="203" y="-768.95" font-family="Helvetica,sans-Serif" font-size="14.00">Heure_actuelle</text>
    </g>
    <!-- Recurrence&#45;&gt;Heure_actuelle -->
    <g id="edge1" class="edge">
      <title>Recurrence-&gt;Heure_actuelle</title>
      <path fill="none" stroke="black" d="M203,-827.7C203,-820.41 203,-811.73 203,-803.54" />
      <polygon fill="black" stroke="black" points="206.5,-803.62 203,-793.62 199.5,-803.62 206.5,-803.62" />
    </g>
    <!-- Obtenir_l&#39;heure_future -->
    <g id="node19" class="node">
      <title>Obtenir_l'heure_future</title>
      <polygon fill="#d9ebff" stroke="#0077ff" points="273.5,-720 132.5,-720 132.5,-684 273.5,-684 273.5,-720" />
      <text text-anchor="middle" x="203" y="-696.95" font-family="Helvetica,sans-Serif" font-size="14.00">Obtenir_l'heure_future</text>
    </g>
    <!-- Heure_actuelle&#45;&gt;Obtenir_l&#39;heure_future -->
    <g id="edge2" class="edge">
      <title>Heure_actuelle-&gt;Obtenir_l'heure_future</title>
      <path fill="none" stroke="black" d="M203,-755.7C203,-748.41 203,-739.73 203,-731.54" />
      <polygon fill="black" stroke="black" points="206.5,-731.62 203,-721.62 199.5,-731.62 206.5,-731.62" />
    </g>
    <!-- Initialiser_la_variable_StartTime -->
    <g id="node20" class="node">
      <title>Initialiser_la_variable_StartTime</title>
      <polygon fill="#ebdbf9" stroke="#770bd6" points="303.5,-648 102.5,-648 102.5,-612 303.5,-612 303.5,-648" />
      <text text-anchor="middle" x="203" y="-624.95" font-family="Helvetica,sans-Serif" font-size="14.00">Initialiser_la_variable_StartTime</text>
    </g>
    <!-- Obtenir_l&#39;heure_future&#45;&gt;Initialiser_la_variable_StartTime -->
    <g id="edge3" class="edge">
      <title>Obtenir_l'heure_future-&gt;Initialiser_la_variable_StartTime</title>
      <path fill="none" stroke="black" d="M203,-683.7C203,-676.41 203,-667.73 203,-659.54" />
      <polygon fill="black" stroke="black" points="206.5,-659.62 203,-649.62 199.5,-659.62 206.5,-659.62" />
    </g>
    <!-- Initialiser_la_variable_EndTime -->
    <g id="node21" class="node">
      <title>Initialiser_la_variable_EndTime</title>
      <polygon fill="#ebdbf9" stroke="#770bd6" points="301.62,-576 104.38,-576 104.38,-540 301.62,-540 301.62,-576" />
      <text text-anchor="middle" x="203" y="-552.95" font-family="Helvetica,sans-Serif" font-size="14.00">Initialiser_la_variable_EndTime</text>
    </g>
    <!-- Initialiser_la_variable_StartTime&#45;&gt;Initialiser_la_variable_EndTime -->
    <g id="edge4" class="edge">
      <title>Initialiser_la_variable_StartTime-&gt;Initialiser_la_variable_EndTime</title>
      <path fill="none" stroke="black" d="M203,-611.7C203,-604.41 203,-595.73 203,-587.54" />
      <polygon fill="black" stroke="black" points="206.5,-587.62 203,-577.62 199.5,-587.62 206.5,-587.62" />
    </g>
    <!-- Obtenir_une_vue_Calendrier_des_evenements_(V3) -->
    <g id="node22" class="node">
      <title>Obtenir_une_vue_Calendrier_des_evenements_(V3)</title>
      <polygon fill="#daece3" stroke="#088142" points="371,-504 35,-504 35,-468 371,-468 371,-504" />
      <text text-anchor="middle" x="203" y="-480.95" font-family="Helvetica,sans-Serif" font-size="14.00">Obtenir_une_vue_Calendrier_des_evenements_(V3)</text>
    </g>
    <!-- Initialiser_la_variable_EndTime&#45;&gt;Obtenir_une_vue_Calendrier_des_evenements_(V3) -->
    <g id="edge5" class="edge">
      <title>Initialiser_la_variable_EndTime-&gt;Obtenir_une_vue_Calendrier_des_evenements_(V3)</title>
      <path fill="none" stroke="black" d="M203,-539.7C203,-532.41 203,-523.73 203,-515.54" />
      <polygon fill="black" stroke="black" points="206.5,-515.62 203,-505.62 199.5,-515.62 206.5,-515.62" />
    </g>
    <!-- Obtenir_une_vue_Calendrier_des_evenements_(V3)&#45;&gt;Appliquer_a_chacun -->
    <g id="edge6" class="edge">
      <title>Obtenir_une_vue_Calendrier_des_evenements_(V3)-&gt;Appliquer_a_chacun</title>
      <path fill="none" stroke="black" d="M203,-467.7C203,-460.41 203,-451.73 203,-443.54" />
      <polygon fill="black" stroke="black" points="206.5,-451.51 203,-441.51 199.5,-451.51 206.5,-451.51" />
    </g>
    <!-- Initialiser_la_variable_(NewEndTime) -->
    <g id="node24" class="node">
      <title>Initialiser_la_variable_(NewEndTime)</title>
      <polygon fill="#ebdbf9" stroke="#770bd6" points="1000,-288 766,-288 766,-252 1000,-252 1000,-288" />
      <text text-anchor="middle" x="883" y="-264.95" font-family="Helvetica,sans-Serif" font-size="14.00">Initialiser_la_variable_(NewEndTime)</text>
    </g>
    <!-- Initialiser_la_variable_(NewStartTime)&#45;&gt;Initialiser_la_variable_(NewEndTime) -->
    <g id="edge11" class="edge">
      <title>Initialiser_la_variable_(NewStartTime)-&gt;Initialiser_la_variable_(NewEndTime)</title>
      <path fill="none" stroke="black" d="M883,-323.7C883,-316.41 883,-307.73 883,-299.54" />
      <polygon fill="black" stroke="black" points="886.5,-299.62 883,-289.62 879.5,-299.62 886.5,-299.62" />
    </g>
    <!-- Initialiser_la_variable_(NewEndTime)&#45;&gt;For_each -->
    <g id="edge12" class="edge">
      <title>Initialiser_la_variable_(NewEndTime)-&gt;For_each</title>
      <path fill="none" stroke="black" d="M883,-251.7C883,-244.41 883,-235.73 883,-227.54" />
      <polygon fill="black" stroke="black" points="886.5,-235.51 883,-225.51 879.5,-235.51 886.5,-235.51" />
    </g>
  </g>
</svg>